# xmcd
#
# Track frame offsets: 
#        150
#        16345
#        30499
#        52304
#        71247
#        86488
#        104791
#        123209
#        138461
#        155966
#        174659
#        190347
#        205274
#        220111
#        237530
#        251713
#        263973
#        279174
#
# Disc length: 3929 seconds
#
# Revision: 0
# Processed by: cddbd v1.5.2PL0 Copyright (c) Steve Scherf et al.
# Submitted via: ExactAudioCopy v1.1
#
DISCID=190f5712
DTITLE=Various Artist - Het Beste Uit de Q Top 1000 Editie 2018 - CD 5
DYEAR=2018
DGENRE=Top 40
TTITLE0=Keane - Everybody's Changing
TTITLE1=Westlife - Uptown Girl
TTITLE2=Nelly Feat. Kelly Rowland - Dilemma
TTITLE3=André Hazes - Een Beetje Verliefd
TTITLE4=Maroon 5 Feat. Christina Aguilera - Moves Like Jagger
TTITLE5=Alexis Jordan - Happiness
TTITLE6=Céline Dion and Peabo Bryson - Beauty And The Beast
TTITLE7=Axwell /\\ Ingrosso - More Than You Know
TTITLE8=Gavin Degraw - Chariot
TTITLE9=Orchestral Manoeuvres In The Dark - Maid Of Orleans
TTITLE10=Adam Lambert - Ghost Town
TTITLE11=Five - Keep On Movin'
TTITLE12=Doe Maar - Smoorverliefd
TTITLE13=Miley Cyrus - Malibu
TTITLE14=Lee Towers - You'll Never Walk Alone
TTITLE15=Vinchenzo - Daily
TTITLE16=John De Bever - Jij Krijgt Die Lach Niet Van Mijn Gezicht
TTITLE17=Jeckyll and Hyde - Freefall
EXTD=
EXTT0=
EXTT1=
EXTT2=
EXTT3=
EXTT4=
EXTT5=
EXTT6=
EXTT7=
EXTT8=
EXTT9=
EXTT10=
EXTT11=
EXTT12=
EXTT13=
EXTT14=
EXTT15=
EXTT16=
EXTT17=
PLAYORDER=
